<?xml version="1.0"?><svg id="Camada_2" data-name="Camada 2" xmlns="http://www.w3.org/2000/svg" viewBox="0 0 429.38 546" xmlns:c2pa="http://c2pa.org/manifest"><metadata><c2pa:manifest>AAAWgmp1bWIAAAAeanVtZGMycGEAEQAQgAAAqgA4m3EDYzJwYQAAABZcanVtYgAAAEdqdW1kYzJtYQARABCAAACqADibcQN1cm46YzJwYTowYWQ3MzU1ZS1lMTI3LTQzY2UtYWMwNS05Nzg3MjMxZDE5ZmEAAAADl2p1bWIAAAApanVtZGMyYXMAEQAQgAAAqgA4m3EDYzJwYS5hc3NlcnRpb25zAAAAALxqdW1iAAAARGp1bWRjYm9yABEAEIAAAKoAOJtxE2MycGEuaW5ncmVkaWVudC52MwAAAAAYYzJzaDN0SNNO0GD5TRr8DhmXQO0AAABwY2JvcqNpZGM6Zm9ybWF0bWltYWdlL3N2Zyt4bWxqaW5zdGFuY2VJRHgseG1wOmlpZDplMWZhM2Y5YS00YTljLTQ2N2UtOGUwNC1jNDVkZGJkNWU0YThscmVsYXRpb25zaGlwaHBhcmVudE9mAAAB4mp1bWIAAABBanVtZGNib3IAEQAQgAAAqgA4m3ETYzJwYS5hY3Rpb25zLnYyAAAAABhjMnNogo6IAeP5o9VGfw5a9xIWDAAAAZljYm9yomdhY3Rpb25zgqJmYWN0aW9ua2MycGEub3BlbmVkanBhcmFtZXRlcnOha2luZ3JlZGllbnRzgaJjdXJseC1zZWxmI2p1bWJmPWMycGEuYXNzZXJ0aW9ucy9jMnBhLmluZ3JlZGllbnQudjNkaGFzaFgg3A7L90inZUB1czfaGycfzabIKsgbQH7pXSaBpMCYX3akZmFjdGlvbngdY29tLmFudGhyb3BpYy5jbGF1ZGUucHJvdmlkZWRqcGFyYW1ldGVyc6F4H2NvbS5hbnRocm9waWMub3JpZ2luLWNvbmZpZGVuY2VndW5rbm93bmtkZXNjcmlwdGlvbnhmQ2xhdWRlIHByb3ZpZGVkIHRoaXMgZmlsZSBhdCB0aGUgcmVxdWVzdCBvZiBhIHVzZXIgYW5kIG1heSBoYXZlIGNyZWF0ZWQgb3IgbW9kaWZpZWQgdGhlIGZpbGUgY29udGVudHMubXNvZnR3YXJlQWdlbnShZG5hbWVmQ2xhdWRlcmFsbEFjdGlvbnNJbmNsdWRlZPUAAADIanVtYgAAAEBqdW1kY2JvcgARABCAAACqADibcRNjMnBhLmhhc2guZGF0YQAAAAAYYzJzaJN5ShbJJQZoFDzGs6fOPlsAAACAY2JvcqVjYWxnZnNoYTI1NmNwYWRNAAAAAAAAAAAAAAAAAGRoYXNoWCCWRRKTc+r46eLOv4MAb/qf85g0eDs/ldU6TrjDy3aAaGRuYW1lbmp1bWJmIG1hbmlmZXN0amV4Y2x1c2lvbnOBomVzdGFydBi4Zmxlbmd0aBkeBAAAAj5qdW1iAAAAJ2p1bWRjMmNsABEAEIAAAKoAOJtxA2MycGEuY2xhaW0udjIAAAACD2Nib3KlY2FsZ2ZzaGEyNTZpc2lnbmF0dXJleE1zZWxmI2p1bWJmPS9jMnBhL3VybjpjMnBhOjBhZDczNTVlLWUxMjctNDNjZS1hYzA1LTk3ODcyMzFkMTlmYS9jMnBhLnNpZ25hdHVyZWppbnN0YW5jZUlEeCx4bXA6aWlkOjdmMTU1ODUzLTE5NjktNDI4Mi1hZjE2LTU1MTE0MzVjYzNhMXJjcmVhdGVkX2Fzc2VydGlvbnODomN1cmx4LXNlbGYjanVtYmY9YzJwYS5hc3NlcnRpb25zL2MycGEuaW5ncmVkaWVudC52M2RoYXNoWCDcDsv3SKdlQHVzN9obJx/NpsgqyBtAfuldJoGkwJhfdqJjdXJseCpzZWxmI2p1bWJmPWMycGEuYXNzZXJ0aW9ucy9jMnBhLmFjdGlvbnMudjJkaGFzaFggdd9Wytu+PLJKMw5xv22r7/xGenjYaci4oDl72qgGs3SiY3VybHgpc2VsZiNqdW1iZj1jMnBhLmFzc2VydGlvbnMvYzJwYS5oYXNoLmRhdGFkaGFzaFggzycQ7dFLudHpBsc3xCCu7gOqR/45IyUSXBmdqULm0fh0Y2xhaW1fZ2VuZXJhdG9yX2luZm+jZG5hbWVvQW50aHJvcGljIEZpbGVzZ3ZlcnNpb25lMS4wLjBrc3BlY1ZlcnNpb25lMi40LjAAABA4anVtYgAAAChqdW1kYzJjcwARABCAAACqADibcQNjMnBhLnNpZ25hdHVyZQAAABAIY2JvctKEWQISogEmGCFZAgowggIGMIIBjaADAgECAhRA5aAK7sI50L64g/oGQgU9Z1UTADAKBggqhkjOPQQDAzBJMRcwFQYDVQQKEw5BbnRocm9waWMsIFBCQzEuMCwGA1UEAxMlQW50aHJvcGljIENvbnRlbnQgQ3JlZGVudGlhbHMgUm9vdCBDQTAeFw0yNjA4MDcxODQzNTZaFw0yODA4MDYxOTQzNTZaMEQxFzAVBgNVBAoTDkFudGhyb3BpYywgUEJDMSkwJwYDVQQDEyBBbnRocm9waWMgQ2xhdWRlIENvbnRlbnQgU2lnbmluZzBZMBMGByqGSM49AgEGCCqGSM49AwEHA0IABJh6CmvLUBgFFNU0vUKlOVtE6djd17L5SuwX0LemFisBM3dkd/3cyjxFA3Qo5S46fX0/ihY0VZ7mfb9KF703t5OjWDBWMA4GA1UdDwEB/wQEAwIHgDAVBgNVHSUEDjAMBgorBgEEAYPoXgIBMAwGA1UdEwEB/wQCMAAwHwYDVR0jBBgwFoAUzlHiBIFOZFsj+OPEz5o+nMHXXMIwCgYIKoZIzj0EAwMDZwAwZAIwMXMdFJ4BetLLVY7ORuE9noqbbAZOZn/aArXyTwFAZfKrPzxF2vPoJNf1+UCdg1XGAjBwX1zd9WGqYkqmL5SFqw1QySjr1zJfpJM9+1rdDwSPLMOPOjKuiXjoU/pUUeG9RwmhY3BhZFkNngAAAAAAAAAAAAAAAAAAAAAAAAAAAAAAAAAAAAAAAAAAAAAAAAAAAAAAAAAAAAAAAAAAAAAAAAAAAAAAAAAAAAAAAAAAAAAAAAAAAAAAAAAAAAAAAAAAAAAAAAAAAAAAAAAAAAAAAAAAAAAAAAAAAAAAAAAAAAAAAAAAAAAAAAAAAAAAAAAAAAAAAAAAAAAAAAAAAAAAAAAAAAAAAAAAAAAAAAAAAAAAAAAAAAAAAAAAAAAAAAAAAAAAAAAAAAAAAAAAAAAAAAAAAAAAAAAAAAAAAAAAAAAAAAAAAAAAAAAAAAAAAAAAAAAAAAAAAAAAAAAAAAAAAAAAAAAAAAAAAAAAAAAAAAAAAAAAAAAAAAAAAAAAAAAAAAAAAAAAAAAAAAAAAAAAAAAAAAAAAAAAAAAAAAAAAAAAAAAAAAAAAAAAAAAAAAAAAAAAAAAAAAAAAAAAAAAAAAAAAAAAAAAAAAAAAAAAAAAAAAAAAAAAAAAAAAAAAAAAAAAAAAAAAAAAAAAAAAAAAAAAAAAAAAAAAAAAAAAAAAAAAAAAAAAAAAAAAAAAAAAAAAAAAAAAAAAAAAAAAAAAAAAAAAAAAAAAAAAAAAAAAAAAAAAAAAAAAAAAAAAAAAAAAAAAAAAAAAAAAAAAAAAAAAAAAAAAAAAAAAAAAAAAAAAAAAAAAAAAAAAAAAAAAAAAAAAAAAAAAAAAAAAAAAAAAAAAAAAAAAAAAAAAAAAAAAAAAAAAAAAAAAAAAAAAAAAAAAAAAAAAAAAAAAAAAAAAAAAAAAAAAAAAAAAAAAAAAAAAAAAAAAAAAAAAAAAAAAAAAAAAAAAAAAAAAAAAAAAAAAAAAAAAAAAAAAAAAAAAAAAAAAAAAAAAAAAAAAAAAAAAAAAAAAAAAAAAAAAAAAAAAAAAAAAAAAAAAAAAAAAAAAAAAAAAAAAAAAAAAAAAAAAAAAAAAAAAAAAAAAAAAAAAAAAAAAAAAAAAAAAAAAAAAAAAAAAAAAAAAAAAAAAAAAAAAAAAAAAAAAAAAAAAAAAAAAAAAAAAAAAAAAAAAAAAAAAAAAAAAAAAAAAAAAAAAAAAAAAAAAAAAAAAAAAAAAAAAAAAAAAAAAAAAAAAAAAAAAAAAAAAAAAAAAAAAAAAAAAAAAAAAAAAAAAAAAAAAAAAAAAAAAAAAAAAAAAAAAAAAAAAAAAAAAAAAAAAAAAAAAAAAAAAAAAAAAAAAAAAAAAAAAAAAAAAAAAAAAAAAAAAAAAAAAAAAAAAAAAAAAAAAAAAAAAAAAAAAAAAAAAAAAAAAAAAAAAAAAAAAAAAAAAAAAAAAAAAAAAAAAAAAAAAAAAAAAAAAAAAAAAAAAAAAAAAAAAAAAAAAAAAAAAAAAAAAAAAAAAAAAAAAAAAAAAAAAAAAAAAAAAAAAAAAAAAAAAAAAAAAAAAAAAAAAAAAAAAAAAAAAAAAAAAAAAAAAAAAAAAAAAAAAAAAAAAAAAAAAAAAAAAAAAAAAAAAAAAAAAAAAAAAAAAAAAAAAAAAAAAAAAAAAAAAAAAAAAAAAAAAAAAAAAAAAAAAAAAAAAAAAAAAAAAAAAAAAAAAAAAAAAAAAAAAAAAAAAAAAAAAAAAAAAAAAAAAAAAAAAAAAAAAAAAAAAAAAAAAAAAAAAAAAAAAAAAAAAAAAAAAAAAAAAAAAAAAAAAAAAAAAAAAAAAAAAAAAAAAAAAAAAAAAAAAAAAAAAAAAAAAAAAAAAAAAAAAAAAAAAAAAAAAAAAAAAAAAAAAAAAAAAAAAAAAAAAAAAAAAAAAAAAAAAAAAAAAAAAAAAAAAAAAAAAAAAAAAAAAAAAAAAAAAAAAAAAAAAAAAAAAAAAAAAAAAAAAAAAAAAAAAAAAAAAAAAAAAAAAAAAAAAAAAAAAAAAAAAAAAAAAAAAAAAAAAAAAAAAAAAAAAAAAAAAAAAAAAAAAAAAAAAAAAAAAAAAAAAAAAAAAAAAAAAAAAAAAAAAAAAAAAAAAAAAAAAAAAAAAAAAAAAAAAAAAAAAAAAAAAAAAAAAAAAAAAAAAAAAAAAAAAAAAAAAAAAAAAAAAAAAAAAAAAAAAAAAAAAAAAAAAAAAAAAAAAAAAAAAAAAAAAAAAAAAAAAAAAAAAAAAAAAAAAAAAAAAAAAAAAAAAAAAAAAAAAAAAAAAAAAAAAAAAAAAAAAAAAAAAAAAAAAAAAAAAAAAAAAAAAAAAAAAAAAAAAAAAAAAAAAAAAAAAAAAAAAAAAAAAAAAAAAAAAAAAAAAAAAAAAAAAAAAAAAAAAAAAAAAAAAAAAAAAAAAAAAAAAAAAAAAAAAAAAAAAAAAAAAAAAAAAAAAAAAAAAAAAAAAAAAAAAAAAAAAAAAAAAAAAAAAAAAAAAAAAAAAAAAAAAAAAAAAAAAAAAAAAAAAAAAAAAAAAAAAAAAAAAAAAAAAAAAAAAAAAAAAAAAAAAAAAAAAAAAAAAAAAAAAAAAAAAAAAAAAAAAAAAAAAAAAAAAAAAAAAAAAAAAAAAAAAAAAAAAAAAAAAAAAAAAAAAAAAAAAAAAAAAAAAAAAAAAAAAAAAAAAAAAAAAAAAAAAAAAAAAAAAAAAAAAAAAAAAAAAAAAAAAAAAAAAAAAAAAAAAAAAAAAAAAAAAAAAAAAAAAAAAAAAAAAAAAAAAAAAAAAAAAAAAAAAAAAAAAAAAAAAAAAAAAAAAAAAAAAAAAAAAAAAAAAAAAAAAAAAAAAAAAAAAAAAAAAAAAAAAAAAAAAAAAAAAAAAAAAAAAAAAAAAAAAAAAAAAAAAAAAAAAAAAAAAAAAAAAAAAAAAAAAAAAAAAAAAAAAAAAAAAAAAAAAAAAAAAAAAAAAAAAAAAAAAAAAAAAAAAAAAAAAAAAAAAAAAAAAAAAAAAAAAAAAAAAAAAAAAAAAAAAAAAAAAAAAAAAAAAAAAAAAAAAAAAAAAAAAAAAAAAAAAAAAAAAAAAAAAAAAAAAAAAAAAAAAAAAAAAAAAAAAAAAAAAAAAAAAAAAAAAAAAAAAAAAAAAAAAAAAAAAAAAAAAAAAAAAAAAAAAAAAAAAAAAAAAAAAAAAAAAAAAAAAAAAAAAAAAAAAAAAAAAAAAAAAAAAAAAAAAAAAAAAAAAAAAAAAAAAAAAAAAAAAAAAAAAAAAAAAAAAAAAAAAAAAAAAAAAAAAAAAAAAAAAAAAAAAAAAAAAAAAAAAAAAAAAAAAAAAAAAAAAAAAAAAAAAAAAAAAAAAAAAAAAAAAAAAAAAAAAAAAAAAAAAAAAAAAAAAAAAAAAAAAAAAAAAAAAAAAAAAAAAAAAAAAAAAAAAAAAAAAAAAAAAAAAAAAAAAAAAAAAAAAAAAAAAAAAAAAAAAAAAAAAAAAAAAAAAAAAAAAAAAAAAAAAAAAAAAAAAAAAAAAAAAAAAAAAAAAAAAAAAAAAAAAAAAAAAAAAAAAAAAAAAAAAAAAAAAAAAAAAAAAAAAAAAAAAAAAAAAAAAAAAAAAAAAAAAAAAAAAAAAAAAAAAAAAAAAAAAAAAAAAAAAAAAAAAAAAAAAAAAAAAAAAAAAAAAAAAAAAAAAAAAAAAAAAAAAAAAAAAAAAAAAAAAAAAAAAAAAAAAAAAAAAAAAAAAAAAAAAAAAAAAAAAAAAAAAAAAAAAAAAAAAAAAAAAAAAAAAAAAAAAAAAAAAAAAAAAAAAAAAAAAAAAAAAAAAAAAAAAAAAAAAAAAAAAAAAAAAAAAAAAAAAAAAAAAAAAAAAAAAAAAAAAAAAAAAAAAAAAAAAAAAAAAAAAAAAAAAAAAAAAAAAAAAAAAAAAAAAAAAAAAAAAAAAAAAAAAAAAAAAAAAAAAAAAAAAAAAAAAAAAAAAAAAAAAAAAAAAAAAAAAAAAAAAAAAAAAAAAAAAAAAAAAAAAAAAAAAAAAAAAAAAAAAAAAAAAAAAAAAAAAAAAAAAAAAAAAAAAAAAAAAAAAAAAAAAAAAAAAAAAAAAAAAAAAAAAAAAAAAAAAAAAAAAAAAAAAAAAAAAAAAAAAAAAAAAAAAAAAAAAAAAAAAAAAAAAAAAAAAAAAAAAAAAAAAAAAAAAAAAAAAAAAAAAAAAAAAAAAAAAAAAAAAAAAAAAAAAAAAAAAAAAAAAAAAAAAAAAAAAAAAAAAAAAAAAAAAAAAAAAAAAAAAAAAAAAAAAAAAAAAAAAAAAAAAAAAAAAAAAAAAAAAAAAAAAAAAAAAAAAAAAAAAAAAAAAAAAAAAAAAAAAAAAAAAAAAAAAAAAAAAAAAAAAAAAAAAAAAAAAAAAAAAAAAAAAAAAAAAAAAAAAAAAAAAAAAAAAAAAAAAAAAAAAAAAAAAAAAAAAAAAAAAAAAAAAAAAAAAAAAAAAAAAAAAAAAAAAAAAAAAAAAAAAAAAAAAAAAAAAAAAAAAAAAAAAAAAAAAAAAAAAAAAAAAAAAAAAAAAAAAAAAAAAAAAAAAAAAAAAAAAAAAAAAAAAAAAAAAAAAAAAAAAAAAAAAAAAAAAAAAAAAAAAAAAAAAAAAAAAAAAAAAAAAAAAAAAAAAAAAAAAAAAAAAAAAAAAAAAAAAAAAAAAAAAAAAAAAAAAAAAAAAAAAAAAAAAAAAAAAAAAAAAAAAAAAAAAAAAAAAAAAAAAAAAAAAAAAAAAAAAAAAAAAAAAAAAAAAAAAAAAAAAAAAAAAAAAAAAAAAAAAAAAPZYQO2CNn269PZSCdNgDlRWH46RuYDvMMKNY4oEDHv0IkS4KjS6dAxBLjdu2oYfHQ3tfLnI8R62vMdUKMG3kQDJYfo=</c2pa:manifest></metadata>
  <defs>
    
  </defs>
  <g id="Camada_1-2" data-name="Camada 1">
    <g class="cls-13">
      <g>
        <path fill="none" stroke="#e07a6e" stroke-width="1.1" stroke-linecap="round" stroke-linejoin="round" class="cls-1" d="M51,178.08c.15-.07.3-.13.45-.2"></path>
        <path fill="none" stroke="#e07a6e" stroke-width="1.1" stroke-linecap="round" stroke-linejoin="round" class="cls-10" d="M52.37,177.48c35.74-15.74,78.56-25.84,124.88-28.15,2.25-.13,4.54-.22,6.79-.3,28.34-.94,55.63,1.16,81.03,5.79"></path>
        <path fill="none" stroke="#e07a6e" stroke-width="1.1" stroke-linecap="round" stroke-linejoin="round" class="cls-1" d="M265.56,154.91c.16.03.33.06.49.09"></path>
      </g>
      <polyline fill="none" stroke="#e07a6e" stroke-width="1.1" stroke-linecap="round" stroke-linejoin="round" class="cls-7" points="217.13 306.66 323.2 374.36 330.51 379.02 331.52 379.67 356.32 395.49 390.61 417.37 404.87 426.48"></polyline>
      <polyline fill="none" stroke="#e07a6e" stroke-width="1.1" stroke-linecap="round" stroke-linejoin="round" class="cls-7" points="138.33 256.37 31.94 188.47 .13 168.17"></polyline>
      <polyline fill="none" stroke="#e07a6e" stroke-width="1.1" stroke-linecap="round" stroke-linejoin="round" class="cls-7" points="174.81 279.65 177.23 281.19 181.01 283.6 181.14 283.69"></polyline>
      <circle fill="none" stroke="#e07a6e" stroke-width="1.1" stroke-linecap="round" stroke-linejoin="round" class="cls-12" cx="375.75" cy="199.61" r="5.94"></circle>
      <path fill="none" stroke="#e07a6e" stroke-width="1.1" stroke-linecap="round" stroke-linejoin="round" class="cls-9" d="M229.25,515.22c10.03-.52,20.1-1.86,30.18-3.98,1.56-.3,3.07-.69,4.63-1.04,117.03-27.67,186.9-155.99,156.03-286.6C389.18,93.04,269.29,9.6,152.26,37.27c-25.21,5.97-48.25,16.6-68.53,30.96-1.95,1.34-3.89,2.77-5.79,4.19l-.52.39"></path>
      <g>
        <path fill="none" stroke="#e07a6e" stroke-width="1.1" stroke-linecap="round" stroke-linejoin="round" class="cls-1" d="M30.9,214.62c0,.17.01.33.02.5"></path>
        <path fill="none" stroke="#e07a6e" stroke-width="1.1" stroke-linecap="round" stroke-linejoin="round" class="cls-6" d="M30.95,216.11c1.4,35.74,8.83,74.71,22.77,114.03,13.96,39.47,32.81,74.58,54.26,103.33,18.69,25.05,39.36,45.25,60.51,59.28"></path>
        <path fill="none" stroke="#e07a6e" stroke-width="1.1" stroke-linecap="round" stroke-linejoin="round" class="cls-1" d="M168.92,493.03c.14.09.28.18.42.27.16-.04.32-.08.48-.12"></path>
        <path fill="none" stroke="#e07a6e" stroke-width="1.1" stroke-linecap="round" stroke-linejoin="round" class="cls-5" d="M170.78,492.94c37.58-9.56,75.76-32.23,109.23-65.48,15.65-15.52,30.26-33.33,43.28-53.22,2.55-3.89,5.06-7.87,7.44-11.93,1.08-1.73,2.12-3.46,3.11-5.23,29.01-50.45,43.15-103.89,43.1-151.88,0-1.73,0-3.46-.09-5.19,0-1.6-.04-3.16-.13-4.71-2.42-57.24-25.51-105.62-68.09-130.09-38.3-22.05-85.43-20.75-131.39-.78-1.08.44-2.16.93-3.23,1.43"></path>
        <path fill="none" stroke="#e07a6e" stroke-width="1.1" stroke-linecap="round" stroke-linejoin="round" class="cls-1" d="M173.55,66.07c-.15.07-.3.14-.46.21"></path>
      </g>
      <g>
        <path fill="none" stroke="#e07a6e" stroke-width="1.1" stroke-linecap="round" stroke-linejoin="round" class="cls-1" d="M327.39,410.68c.15-.07.3-.14.46-.21"></path>
        <path fill="none" stroke="#e07a6e" stroke-width="1.1" stroke-linecap="round" stroke-linejoin="round" class="cls-11" d="M328.76,410.06c50.68-23.13,86.54-57.49,97.12-96.44t.04-.09v-.04c2.38-8.73,3.46-17.68,3.16-26.8-.17-5.62-.91-11.15-2.12-16.56-.04-.04-.04-.09-.04-.13v-.09c-5.75-25.72-22.65-48.98-47.6-68.09-.82-.61-1.64-1.25-2.46-1.82-2.12-1.6-4.28-3.16-6.53-4.67-27.45-18.57-62.98-32.59-103.3-40.15"></path>
        <path fill="none" stroke="#e07a6e" stroke-width="1.1" stroke-linecap="round" stroke-linejoin="round" class="cls-1" d="M266.54,155.09c-.16-.03-.33-.06-.49-.09"></path>
      </g>
      <polyline fill="none" stroke="#e07a6e" stroke-width="1.1" stroke-linecap="round" stroke-linejoin="round" class="cls-7" points="177.23 333.99 177.23 491.17 177.23 497.77 177.23 498.21 177.23 546"></polyline>
      <polyline fill="none" stroke="#e07a6e" stroke-width="1.1" stroke-linecap="round" stroke-linejoin="round" class="cls-7" points="177.23 231.69 177.23 149.33 177.23 66.79 177.23 64.43 177.23 33.04 177.23 0"></polyline>
      <polyline fill="none" stroke="#e07a6e" stroke-width="1.1" stroke-linecap="round" stroke-linejoin="round" class="cls-7" points="177.23 278.83 177.23 281.19 177.23 285.22 177.23 286.85"></polyline>
      <g>
        <line fill="none" stroke="#e07a6e" stroke-width="1.1" stroke-linecap="round" stroke-linejoin="round" class="cls-1" x1="177.23" y1="285.22" x2="177.69" y2="285.02"></line>
        <line fill="none" stroke="#e07a6e" stroke-width="1.1" stroke-linecap="round" stroke-linejoin="round" class="cls-4" x1="178.7" y1="284.59" x2="180.21" y2="283.95"></line>
        <polyline fill="none" stroke="#e07a6e" stroke-width="1.1" stroke-linecap="round" stroke-linejoin="round" class="cls-1" points="180.71 283.73 181.01 283.6 181.17 283.54"></polyline>
      </g>
      <g>
        <line fill="none" stroke="#e07a6e" stroke-width="1.1" stroke-linecap="round" stroke-linejoin="round" class="cls-1" x1="376.86" y1="200" x2="376.4" y2="200.2"></line>
        <polyline fill="none" stroke="#e07a6e" stroke-width="1.1" stroke-linecap="round" stroke-linejoin="round" class="cls-8" points="375.48 200.59 370.65 202.65 305.71 230.37 217.77 267.92"></polyline>
        <line fill="none" stroke="#e07a6e" stroke-width="1.1" stroke-linecap="round" stroke-linejoin="round" class="cls-1" x1="217.31" y1="268.11" x2="216.85" y2="268.31"></line>
      </g>
      <g>
        <line fill="none" stroke="#e07a6e" stroke-width="1.1" stroke-linecap="round" stroke-linejoin="round" class="cls-1" x1="178.78" y1="282.82" x2="178.32" y2="283.01"></line>
        <polyline fill="none" stroke="#e07a6e" stroke-width="1.1" stroke-linecap="round" stroke-linejoin="round" class="cls-8" points="177.4 283.4 172.57 285.47 107.63 313.19 19.69 350.73"></polyline>
        <line fill="none" stroke="#e07a6e" stroke-width="1.1" stroke-linecap="round" stroke-linejoin="round" class="cls-1" x1="19.23" y1="350.93" x2="18.77" y2="351.13"></line>
      </g>
      <ellipse fill="none" stroke="#e07a6e" stroke-width="1.1" stroke-linecap="round" stroke-linejoin="round" class="cls-9" cx="181.7" cy="284.71" rx="135.12" ry="239.5" transform="translate(-83.96 76.15) rotate(-19.32)"></ellipse>
      <ellipse fill="none" stroke="#e07a6e" stroke-width="1.1" stroke-linecap="round" stroke-linejoin="round" class="cls-2" cx="177.23" cy="282.84" rx="42.14" ry="52.04" transform="translate(-67.58 55.95) rotate(-15.1)"></ellipse>
      <path fill="none" stroke="#e07a6e" stroke-width="1.1" stroke-linecap="round" stroke-linejoin="round" class="cls-3" d="M194.71,289.37s-11.8,7.71-21.45,4.1-13.5-17.17-13.5-17.17c0,0,11.8-7.71,21.45-4.1,9.65,3.61,13.5,17.17,13.5,17.17Z"></path>
      <circle fill="none" stroke="#e07a6e" stroke-width="1.1" stroke-linecap="round" stroke-linejoin="round" class="cls-12" cx="177.23" cy="282.84" r="4.01"></circle>
    </g>
  </g>
</svg>